<svg xmlns="http://www.w3.org/2000/svg" viewBox="0 0 796.4 979.9"><path d="M245.1,428.8a30.6,30.6,0,0,0-30.6,30.6V826.9a30.6,30.6,0,1,0,61.2,0V459.4A30.6,30.6,0,0,0,245.1,428.8Zm153.1,0a30.6,30.6,0,0,0-30.6,30.6V826.9a30.6,30.6,0,0,0,61.2,0V459.4A30.6,30.6,0,0,0,398.2,428.8ZM735.1,122.5H551.3V61.3A61.31,61.31,0,0,0,490,0H306.3A61.31,61.31,0,0,0,245,61.3v61.2H61.3A61.29,61.29,0,0,0,0,183.7V245a61.22,61.22,0,0,0,61.3,61.2V857.4A122.51,122.51,0,0,0,183.8,979.9H612.6A122.51,122.51,0,0,0,735.1,857.4V306.3a61.29,61.29,0,0,0,61.3-61.2V183.8A61.37,61.37,0,0,0,735.1,122.5ZM306.3,91.9a30.6,30.6,0,0,1,30.6-30.6H459.4A30.6,30.6,0,0,1,490,91.9v30.6H306.3ZM673.8,857.5a61.29,61.29,0,0,1-61.2,61.3H183.8a61.31,61.31,0,0,1-61.3-61.3V306.3H673.8V857.5ZM704.5,245H91.9a30.6,30.6,0,0,1,0-61.2H704.4a30.6,30.6,0,0,1,.1,61.2ZM551.3,428.8a30.6,30.6,0,0,0-30.6,30.6V826.9a30.6,30.6,0,0,0,61.2,0V459.4A30.6,30.6,0,0,0,551.3,428.8Z"/></svg>