<svg xmlns="http://www.w3.org/2000/svg" viewBox="0 0 90 89.85"><path d="M72.93,89.85H3.22A3.22,3.22,0,0,1,0,86.63V16.92A3.22,3.22,0,0,1,3.22,13.7H38.07a3.22,3.22,0,0,1,0,6.44H6.44V83.41H69.71V51.78a3.22,3.22,0,1,1,6.43,0V86.63A3.22,3.22,0,0,1,72.93,89.85Z"/><path d="M89.06,11,79,.94a3.22,3.22,0,0,0-4.54,0L65.42,10l-35,35a3.18,3.18,0,0,0-.69,1l-7.5,17.51A3.21,3.21,0,0,0,25.16,68a3.39,3.39,0,0,0,1.28-.25L44,60.29a3.33,3.33,0,0,0,1-.68l35-35,9.07-9.06A3.24,3.24,0,0,0,89.06,11ZM31.29,58.71l2.92-6.82,3.9,3.9Zm10.63-5.16-5.46-5.47L68,16.52,73.48,22ZM76.51,19,71,13.49l5.72-5.72,5.47,5.46Z"/></svg>