<?xml version="1.0" encoding="utf-8"?>
<!-- Svg Vector Icons : http://www.onlinewebfonts.com/icon -->
<!DOCTYPE svg PUBLIC "-//W3C//DTD SVG 1.1//EN" "http://www.w3.org/Graphics/SVG/1.1/DTD/svg11.dtd">
<svg version="1.1" xmlns="http://www.w3.org/2000/svg" xmlns:xlink="http://www.w3.org/1999/xlink" x="0px" y="0px" viewBox="0 0 1000 1000" enable-background="new 0 0 1000 1000" xml:space="preserve">
<metadata> Svg Vector Icons : http://www.onlinewebfonts.com/icon </metadata>
<g><path d="M979.7,195.3l-175-175C798.2,13.7,789.3,10,780,10H115C57.1,10,10,57.1,10,115v770c0,57.9,47.1,105,105,105h770c57.9,0,105-47.1,105-105V220C990,210.7,986.3,201.8,979.7,195.3z M290,80h280v173.7c0,19.3,15.7,35,35,35s35-15.7,35-35V80h70v280H290V80z M780,920H220V710h560V920z M920,885c0,19.3-15.7,35-35,35h-35V707.8c0-37.4-30.4-67.8-67.8-67.8H217.8c-37.4,0-67.8,30.4-67.8,67.8V920h-35c-19.3,0-35-15.7-35-35V115c0-19.3,15.7-35,35-35h105v282.2c0,37.4,30.4,67.8,67.8,67.8h424.4c37.4,0,67.8-30.4,67.8-67.8V94.5l140,140V885L920,885z"/></g>
</svg>