<svg xmlns="http://www.w3.org/2000/svg" viewBox="0 0 720.71 720.71"><defs><style>.a{fill:#fff;}</style></defs><path class="a" d="M221.35,715.35V575.56a386.34,386.34,0,0,0,62,5.76v67a5,5,0,0,0,5,5c97.29,0,188.81-30.34,257.68-85.44,33.61-26.88,60-58.21,78.45-93.12,19.16-36.23,28.87-74.73,28.87-114.44s-9.71-78.2-28.87-114.44C606,211,579.64,179.68,546,152.8,477.16,97.7,385.64,67.35,288.35,67.35a5,5,0,0,0-5,5v67a385.2,385.2,0,0,0-62,5.76V72.35a5,5,0,0,0-5-5H5.35v-62h710v62H548.21a5,5,0,0,0-2.65,9.24,418,418,0,0,1,39.21,27.8c40.27,32.22,72.07,70.08,94.52,112.55,23.93,45.26,36.06,93.51,36.06,143.41s-12.13,98.16-36.06,143.43c-22.44,42.45-54.24,80.32-94.52,112.54-39.18,31.34-84.54,55.86-134.81,72.87a503.17,503.17,0,0,1-161.61,26.16Z"/><path class="a" d="M710.35,10.35v52H548.21a10,10,0,0,0-5.3,18.48,414.2,414.2,0,0,1,38.74,27.46c39.73,31.79,71.09,69.13,93.22,111,23.55,44.53,35.48,92,35.48,141.07s-11.93,96.55-35.48,141.09c-22.12,41.85-53.49,79.18-93.22,111-38.73,31-83.57,55.22-133.29,72a498.06,498.06,0,0,1-160,25.9h-62V581.47a391.63,391.63,0,0,0,52,4.76v62.12a10,10,0,0,0,10,10,446.15,446.15,0,0,0,143.34-23.16c44-14.88,83.49-36.2,117.47-63.38,34.14-27.31,61-59.16,79.74-94.68,19.55-37,29.45-76.25,29.45-116.78s-9.9-79.81-29.45-116.77c-18.77-35.52-45.6-67.37-79.74-94.68-34-27.18-73.5-48.51-117.47-63.39A446.43,446.43,0,0,0,288.35,62.35a10,10,0,0,0-10,10v62.13a391.63,391.63,0,0,0-52,4.76V72.35a10,10,0,0,0-10-10h-206v-52h700m10-10H.35v72h216v78.8a380.33,380.33,0,0,1,72-6.8v-72c198.82,0,360,128.94,360,288s-161.18,288-360,288v-72a380.33,380.33,0,0,1-72-6.8v150.8h72a508.09,508.09,0,0,0,163.21-26.43c50.83-17.2,96.7-42,136.33-73.7,40.81-32.65,73.05-71,95.82-114.11,24.31-46,36.64-95,36.64-145.76S708,260.58,683.71,214.6c-22.77-43.07-55-81.47-95.82-114.12a421.57,421.57,0,0,0-39.68-28.13H720.35V.35Z"/><path class="a" d="M211.35,563.44c-57.41-12.11-109.12-38-146.13-73.35C26.06,452.7,5.35,407.84,5.35,360.35S26.06,268,65.22,230.62c37-35.32,88.72-61.24,146.13-73.36Z"/><path class="a" d="M206.35,163.48V557.23a326.55,326.55,0,0,1-71.72-25.29c-25.18-12.43-47.37-27.73-65.95-45.47S35.6,449,25.69,427.88a156.29,156.29,0,0,1,0-135c9.91-21.12,24.38-40.83,43-58.59s40.77-33,65.95-45.47a326.55,326.55,0,0,1,71.72-25.29m10-12.33C92.13,175.13.35,259.7.35,360.35s91.78,185.22,216,209.2V151.15Z"/><path class="a" d="M293.35,149.39c153.76,2,278,95.86,278,211s-124.24,209-278,211Z"/><path class="a" d="M298.35,154.49c148.68,3.91,268,94.76,268,205.86s-119.32,202-268,205.87V154.49m-10-10.14v432c159.06,0,288-96.71,288-216s-128.94-216-288-216Z"/></svg>