<svg xmlns="http://www.w3.org/2000/svg" viewBox="0 0 720 720"><defs><style>.a{fill:#fff;}</style></defs><path d="M288,720H216v-4.94A521.94,521.94,0,0,0,288,720Z"/><path class="a" d="M648,360c0,159.06-161.18,288-360,288V576c159.06,0,288-96.71,288-216S447.06,144,288,144V72C486.82,72,648,200.94,648,360Z"/><path class="a" d="M288,144V576a380.33,380.33,0,0,1-72-6.8V150.8A380.33,380.33,0,0,1,288,144Z"/><path d="M720,0V72H547.86a421.57,421.57,0,0,1,39.68,28.13c40.81,32.65,73.05,71.05,95.82,114.12,24.31,46,36.64,95,36.64,145.75s-12.33,99.77-36.64,145.76c-22.77,43.07-55,81.46-95.82,114.11-39.63,31.7-85.5,56.5-136.33,73.7A508.09,508.09,0,0,1,288,720a521.94,521.94,0,0,1-72-4.94V569.2a380.33,380.33,0,0,0,72,6.8v72c198.82,0,360-128.94,360-288S486.82,72,288,72v72a380.33,380.33,0,0,0-72,6.8V72H0V0Z"/><path d="M288,720H216v-4.94A521.94,521.94,0,0,0,288,720Z"/><path d="M216,150.8V569.2C91.78,545.22,0,460.65,0,360S91.78,174.78,216,150.8Z"/><path d="M576,360c0,119.29-128.94,216-288,216V144C447.06,144,576,240.71,576,360Z"/></svg>